<?xml version="1.0" encoding="UTF-8"?><!DOCTYPE svg PUBLIC "-//W3C//DTD SVG 1.1//EN" "http://www.w3.org/Graphics/SVG/1.1/DTD/svg11.dtd"><svg xmlns="http://www.w3.org/2000/svg"><defs/><symbol id="cancel-x" viewBox="0 0 56 56">
    <!-- Generator: Sketch 41.2 (35397) - http://www.bohemiancoding.com/sketch -->
    <title>cancel-x</title>
    <desc>Created with Sketch.</desc>
    
    <g id="Transfer-Tickets" stroke="none" stroke-width="1" fill="none" fill-rule="evenodd">
        <g id="cancel-x" fill="#b34944">
            <path d="M28,55.5 C43.1878306,55.5 55.5,43.1878306 55.5,28 C55.5,12.8121694 43.1878306,0.5 28,0.5 C12.8121694,0.5 0.5,12.8121694 0.5,28 C0.5,43.1878306 12.8121694,55.5 28,55.5 L28,55.5 L28,55.5 Z M28,52.5 C14.4690236,52.5 3.5,41.5309764 3.5,28 C3.5,14.4690236 14.4690236,3.5 28,3.5 C41.5309764,3.5 52.5,14.4690236 52.5,28 C52.5,41.5309764 41.5309764,52.5 28,52.5 L28,52.5 L28,52.5 Z" id="Oval-1"/>
            <polygon id="Combined-Shape" points="38.1890957 16.5936367 40.310416 18.714957 30.1523262 28.8730469 40.1541925 38.8749131 38.0328721 40.9962335 28.0310059 30.9943672 17.9349909 41.0903822 15.8136705 38.9690619 25.9096855 28.8730469 15.5640957 18.527457 17.685416 16.4061367 28.0310059 26.7517265"/>
        </g>
    </g>
</symbol><symbol id="message-icon" viewBox="0 0 18 18">
    <!-- Generator: Sketch 41.2 (35397) - http://www.bohemiancoding.com/sketch -->
    <title>Combined Shape</title>
    <desc>Created with Sketch.</desc>
    
    <g id="Transfer-Tickets" stroke="none" stroke-width="1" fill="none" fill-rule="evenodd">
        <g id="1-transfer-tickets-6" transform="translate(-317.000000, -435.000000)" fill="#6A6D7C">
            <g id="Group-5">
                <g id="Group-3">
                    <g id="Modal" transform="translate(297.000000, 80.000000)">
                        <path d="M29.5351562,369.308594 C33.5867299,369.282319 37.2279687,366.813994 37.2279687,362.758178 C37.2279687,358.741194 33.9449102,355.473891 29.894828,355.500157 L27.8266556,355.513569 C23.775082,355.539845 20.5,358.844334 20.5,362.900151 C20.5,364.797794 21.2527953,366.612951 22.5743052,367.966201 L27.1426631,372.174576 C28.282013,373.219773 29.4590727,372.703428 29.4590727,371.160997 L29.5351562,369.308594 Z" id="Combined-Shape"/>
                    </g>
                </g>
            </g>
        </g>
    </g>
</symbol><symbol id="transfer-out" viewBox="0 0 46 47">
    <!-- Generator: Sketch 41.2 (35397) - http://www.bohemiancoding.com/sketch -->
    <title>transfer-out</title>
    <desc>Created with Sketch.</desc>
    
    <g id="Page-1" stroke="none" stroke-width="1" fill="none" fill-rule="evenodd">
        <g id="TEMP---Transfer-sent---1-tt---1-tix" transform="translate(-469.000000, -498.000000)" fill="#6A6D7C">
            <g id="Sent-tickets" transform="translate(400.000000, 100.000000)">
                <g id="personal-message" transform="translate(40.000000, 368.000000)">
                    <g id="transfer-out" transform="translate(29.000000, 30.000000)">
                        <path d="M38.4578756,6.78140625 L36.4571864,6.78140625 L35.7978684,6.78140625 L35.6131458,6.78140625 C24.2502685,6.78140625 19.8899708,10.9684435 20.1884688,24.0452219 C20.1879688,24.9717044 20.1879688,24.9717044 20.1879688,27.8825988 C20.1879688,28.8530322 20.1879688,28.8530322 20.1879688,29.7515615 C20.1879688,31.3326078 20.1879686,32.6703501 20.1879686,32.6703501 L24.0279686,32.6703501 C24.0279686,32.6703501 24.0279688,31.3326078 24.0279688,29.7515615 C24.0279688,28.8530322 24.0279688,28.8530322 24.0279688,27.8825988 C24.0279688,24.9717044 24.0279688,24.9717044 24.0279688,24.0014062 C23.7794466,13.0920878 26.3523654,10.6214063 35.5477824,10.6214063 L35.7978684,10.6214063 L36.4571864,10.6214063 L38.4578756,10.6214063 L38.5901006,10.6214063 L34.956948,14.3279228 L37.5590654,16.9867424 L45.8719527,8.65386739 L37.559065,0.289693405 L34.8316014,2.86769527 L38.5952568,6.78140625 L38.4578756,6.78140625 Z" id="Combined-Shape"/>
                        <path d="M27.8635156,19.1050132 L39.2532641,19.1050132 C41.3763338,19.1050132 43.0974219,20.8287708 43.0974219,22.9434055 L43.0974219,28.7467966 C43.0974219,28.7467966 37.3948437,28.4245146 37.3948437,32.7451911 C37.3948437,37.0658676 43.0974219,36.5467975 43.0974219,36.5467975 L43.0974219,42.2866146 C43.0974219,44.4085677 41.3892479,46.1287507 39.2744043,46.1287507 L4.68043947,46.1287507 C2.56904516,46.1287507 0.857421875,44.4032673 0.857421875,42.2704901 L0.857421875,36.2228089 C0.857421875,36.2228089 6.7974216,37.1712499 6.79742188,32.7451911 C6.79742215,28.3191323 0.857421875,28.7467969 0.857421875,28.7467969 L0.857421875,22.9434055 C0.857421875,20.8125471 2.55948986,19.1050132 4.68043953,19.1050132 L16.3435156,19.1050132 L16.3435156,22.9253676 L4.70500388,22.9253676 L4.70500388,25.6275944 C4.70500388,25.6275944 10.6451562,26.4649227 10.6451562,32.7049219 C10.6451562,38.944921 4.70515625,39.9049219 4.70515625,39.9049219 L4.70515625,42.3656535 L39.385214,42.3656535 L39.385214,39.7162182 C39.385214,39.7162182 33.4451562,38.7623437 33.4451562,32.6423438 C33.4451562,26.5223438 39.4451562,25.3823438 39.4451562,25.3823438 L39.4451562,23.0460263 L27.8649811,23.0460263 L27.8635156,19.1050132 Z" id="Path-488"/>
                    </g>
                </g>
            </g>
        </g>
    </g>
</symbol></svg>