<?xml version="1.0" encoding="UTF-8"?>
<svg width="104px" height="90px" viewBox="0 0 104 90" version="1.1" xmlns="http://www.w3.org/2000/svg" xmlns:xlink="http://www.w3.org/1999/xlink">
    <!-- Generator: Sketch 42 (36781) - http://www.bohemiancoding.com/sketch -->
    <title>no-current-items</title>
    <desc>Created with Sketch.</desc>
    <defs></defs>
    <g id="Transfer-Tickets" stroke="none" stroke-width="1" fill="none" fill-rule="evenodd">
        <g id="0-transfer-start-4---no-ticket-transferrable" transform="translate(-460.000000, -141.000000)">
            <g id="no-current-items" transform="translate(460.000000, 141.000000)">
                <g id="Rectangle-1-+-Rectangle-1">
                    <g id="Group">
                        <path d="M55.1933691,78.2074897 L42.5077314,74.8083833 L61.7293433,3.07235113 L74.4166753,6.47191149 C73.1919247,11.0432297 75.8612182,15.7302445 80.3788007,16.9407271 C84.8963832,18.1512097 89.5515665,15.4267826 90.7765605,10.8555295 L103.386458,14.2343415 L84.1648465,85.9703737 L71.5532543,82.5911077 C72.7780061,78.0197889 70.1087125,73.3327731 65.5911294,72.1222903 C61.0735464,70.9118076 56.4183624,73.6362356 55.1933691,78.2074897 Z" id="Rectangle-1" fill="#ECEDF1"></path>
                        <path d="M27.5930208,87.621504 L13.1319403,89.9119141 L0.10351767,7.65369112 L14.5633974,5.36347115 C15.39368,10.6053378 20.2661598,14.1895737 25.4464327,13.3690991 C30.6267055,12.5486245 34.1531194,7.63413446 33.3229391,2.39225164 L47.8708691,0.0880858893 L60.8992918,82.3463089 L46.3525624,84.6502845 C45.5222805,79.4084172 40.6498003,75.8241806 35.469527,76.6446552 C30.2892538,77.4651299 26.7628397,82.3796207 27.5930208,87.621504 L27.5930208,87.621504 Z" id="Rectangle-1" fill="#ECEDF1"></path>
                        <path d="M71.5532543,82.5911077 C72.7780061,78.0197889 70.1087125,73.3327731 65.5911294,72.1222903 C63.4829351,71.5574014 61.2014571,71.8952081 59.3959181,72.8319654 C59.3959187,72.8319654 53.3054339,34.5108091 53.3054339,34.5108091 L61.7293433,3.07235113 L74.4166753,6.47191149 C73.1919247,11.0432297 75.8612182,15.7302445 80.3788007,16.9407271 C84.8963832,18.1512097 89.5515665,15.4267826 90.7765605,10.8555295 L103.386458,14.2343415 L84.1648465,85.9703737 L71.5532543,82.5911077 Z M81.9692847,82.1811244 L99.6779531,16.2593868 C99.6779531,16.2593868 92.5653534,14.5597276 92.5653536,14.5597272 C89.9849102,18.9721577 84.7213602,21.3172385 79.5755691,19.9384279 C74.3559656,18.5398394 70.9471785,13.7625022 71.0162862,8.56521399 C70.9471779,8.56521387 63.9394495,6.81492599 63.9394495,6.81492599 L54.5075464,42.0403081 C54.5075464,42.0403081 58.9382096,69.6419067 58.9382099,69.6419086 C61.2196978,68.6766991 63.821746,68.4352594 66.394361,69.1245895 C71.5471278,70.5052692 74.9351561,75.1787223 74.9545914,80.2983633 C74.9351558,80.2983609 81.9692847,82.1811244 81.9692847,82.1811244 Z" id="Path" fill="#BDBFCB"></path>
                        <path d="M27.5930208,87.621504 L13.1319403,89.9119141 L0.10351767,7.65369112 L14.5633974,5.36347115 C15.39368,10.6053378 20.2661598,14.1895737 25.4464327,13.3690991 C30.6267055,12.5486245 34.1531194,7.63413446 33.3229391,2.39225164 L47.8708691,0.0880858893 L60.8992918,82.3463089 L46.3525624,84.6502845 C45.5222805,79.4084172 40.6498003,75.8241806 35.469527,76.6446552 C30.2892538,77.4651299 26.7628397,82.3796207 27.5930208,87.621504 L27.5930208,87.621504 Z M24.4163686,84.9777912 C24.9105726,79.3165449 29.1545203,74.5027209 34.9840408,73.5794156 C40.807935,72.6570013 46.3266861,75.9165752 48.5503507,81.1391832 C48.5503514,81.1391818 57.3474646,79.7490476 57.3474646,79.7490476 L45.3330133,3.63217592 C45.3330133,3.63217592 36.5033254,4.99233157 36.5033243,4.99233164 C36.0271738,10.6724597 31.7764097,15.5086624 25.9319189,16.4343388 C20.0974704,17.3584246 14.5692719,14.0853512 12.353552,8.84615785 C12.3535523,8.84615791 3.65061054,10.2105062 3.65061054,10.2105062 L15.7126345,86.3671284 C15.7126345,86.3671284 24.4163689,84.9777907 24.4163686,84.9777912 Z" id="Path" fill="#BDBFCB"></path>
                        <path d="M32.7400938,42.6797545 C31.8094863,42.1607053 31.1371144,42.8462601 31.7366122,43.7495549 C31.9289409,44.1566611 32.3825654,44.8279305 33.0910298,45.4976928 C34.5961683,46.9206082 36.5618,47.612636 38.9834688,47.1609025 C40.9877281,46.7870319 42.451072,45.8154071 43.436558,44.4351754 C43.8884425,43.8022844 44.2087025,43.1261237 44.420737,42.4495785 C44.5491723,42.0397757 44.6136942,41.7154682 44.6360532,41.5177954 C44.8681873,40.5164765 44.0336704,40.1401265 43.3313113,40.9396972 C43.237005,41.0659112 43.1018048,41.234045 42.9020019,41.4540819 C42.5653286,41.82485 42.1740374,42.1962593 41.733924,42.5423246 C40.7292725,43.3322915 39.6281424,43.8686765 38.4568982,44.0416919 C37.0564214,44.2485694 35.5883719,43.9795754 34.1718806,43.4003496 C33.7901858,43.2442686 33.4423666,43.0771454 33.1361111,42.910554 C32.9551546,42.8121206 32.8304408,42.7372128 32.7694901,42.6975004 L32.7400938,42.6797545 Z" id="Path-9" fill="#BDBFCB" fill-rule="nonzero"></path>
                        <path d="M16.654284,46.150521 C15.6819797,45.7145547 15.0719164,46.4561018 15.7478603,47.3037097 C15.9499485,47.6506864 16.4114562,48.2297053 17.1013513,48.8065612 C18.7416205,50.1780723 20.8099888,50.7542201 23.264459,50.0704709 C25.1078269,49.5569583 26.4342867,48.5579291 27.3059212,47.2203555 C27.768115,46.5110923 28.0719628,45.7536329 28.2493035,44.9961948 C28.356555,44.538114 28.3981235,44.1761466 28.4037043,43.9561823 C28.5476844,42.938442 27.683542,42.636257 27.0535428,43.4939997 C26.9647231,43.6377314 26.8329155,43.8335135 26.6358134,44.0894355 C26.3040831,44.5201617 25.9133749,44.9514711 25.467781,45.3531184 C24.5668601,46.1651862 23.5623635,46.7482586 22.4680349,47.0090235 C21.0132388,47.3556834 19.4439348,47.1803993 17.9227592,46.6725163 C17.5848188,46.5596863 17.2773668,46.438958 17.0070406,46.3186875 C16.8476627,46.2477789 16.7381777,46.1939537 16.6851151,46.1656373 L16.654284,46.150521 Z" id="Path-9-Copy" fill="#BDBFCB" fill-rule="nonzero"></path>
                        <path d="M34.6358329,33.0425468 C34.9185478,33.5769908 35.49275,34.3139546 36.4175849,35.036787 C38.4298784,36.609555 41.1823938,37.3172344 44.7008554,36.7090185 C45.2450689,36.6149435 45.6099783,36.0975085 45.5159033,35.553295 C45.4218283,35.0090815 44.9043932,34.6441721 44.3601797,34.7382471 C41.4020816,35.2495962 39.2197665,34.6885169 37.6491958,33.4609904 C37.2480056,33.1474283 36.9209944,32.8134951 36.6638364,32.4834439 C36.5180619,32.2963486 36.4327956,32.162324 36.4037179,32.1073555 C36.1454719,31.6191676 35.5403677,31.4327627 35.0521797,31.6910087 C34.5639918,31.9492546 34.377587,32.5543589 34.6358329,33.0425468 Z" id="Path-10" fill="#BDBFCB" fill-rule="nonzero"></path>
                        <path d="M20.8833847,34.2186241 C20.8394985,34.3607451 20.723382,34.6505099 20.5206182,35.0379785 C20.1740622,35.7002253 19.7119918,36.3651602 19.1212126,36.985517 C17.7967418,38.3762982 16.0279734,39.3406517 13.719771,39.6928374 C13.173805,39.776141 12.7987429,40.2862648 12.8820464,40.8322309 C12.96535,41.378197 13.4754738,41.7532591 14.0214399,41.6699555 C16.7810817,41.2488891 18.9480733,40.0674196 20.5695315,38.3647822 C21.8184192,37.0533683 22.50831,35.7350306 22.7943497,34.8087196 C22.9573001,34.2810212 22.6616134,33.7211397 22.1339149,33.5581894 C21.6062165,33.395239 21.0463351,33.6909257 20.8833847,34.2186241 Z" id="Path-11" fill="#BDBFCB" fill-rule="nonzero"></path>
                        <path d="M28.3827443,56.1906719 L37.5214162,54.7641582 C38.067093,54.67898 38.4404008,54.1675711 38.3552227,53.6218943 C38.2700445,53.0762176 37.7586355,52.7029097 37.2129588,52.7880879 L28.0742869,54.2146015 C27.5286101,54.2997797 27.1553023,54.8111887 27.2404805,55.3568654 C27.3256586,55.9025422 27.8370676,56.2758501 28.3827443,56.1906719 Z" id="Path-12" fill="#BDBFCB" fill-rule="nonzero"></path>
                        <path d="M75.04562,43.1051054 C74.1971249,42.6459465 73.5840799,43.2523988 74.1306809,44.0514673 C74.3060393,44.4115997 74.7196382,45.005415 75.365591,45.597897 C76.7379232,46.8566299 78.5301168,47.4688083 80.738109,47.0691979 C82.5655218,46.7384662 83.8997471,45.878952 84.7982785,44.6579778 C85.2102908,44.0981126 85.5022926,43.4999705 85.6956181,42.9014882 C85.812721,42.5389703 85.8715497,42.2520829 85.8919359,42.0772185 C86.1035875,41.1914365 85.3427045,40.8585115 84.7023183,41.565824 C84.6163331,41.6774748 84.4930624,41.8262085 84.3108891,42.0208566 C84.0039223,42.3488438 83.6471567,42.6773981 83.2458769,42.9835328 C82.3298711,43.6823497 81.3258995,44.1568442 80.2580004,44.3098962 C78.9810952,44.4929033 77.6425794,44.254947 76.3510727,43.742555 C76.0030568,43.6044833 75.6859275,43.4566435 75.4066945,43.3092743 C75.2417048,43.2221985 75.1279951,43.155934 75.0724224,43.1208037 L75.04562,43.1051054 Z" id="Path-9" fill="#BDBFCB" fill-rule="nonzero" transform="translate(79.925636, 44.186887) rotate(27.000000) translate(-79.925636, -44.186887) "></path>
                        <path d="M60.8704722,39.2222805 C59.9839593,38.836618 59.4277252,39.492602 60.0440269,40.2424089 C60.2282838,40.5493498 60.6490703,41.0615589 61.2780923,41.5718545 C62.7736318,42.7851143 64.6594971,43.2947835 66.8973963,42.6899285 C68.5781142,42.2356673 69.7875334,41.3519107 70.5822589,40.1686725 C71.003671,39.5412474 71.2807087,38.8711872 71.4424017,38.2011458 C71.5401898,37.7959204 71.5780905,37.4757185 71.5831789,37.2811347 C71.7144548,36.3808259 70.9265603,36.1135085 70.3521493,36.8722809 C70.2711666,36.9994281 70.1509891,37.17262 69.9712783,37.3990125 C69.6688184,37.7800396 69.3125844,38.1615825 68.9063076,38.5168859 C68.0848797,39.2352535 67.1690152,39.7510484 66.171245,39.981725 C64.8448132,40.2883856 63.4139773,40.1333267 62.0270231,39.6840455 C61.7189009,39.5842344 61.438577,39.4774362 61.1921031,39.3710431 C61.046788,39.3083163 60.9469634,39.2607017 60.8985828,39.2356526 L60.8704722,39.2222805 Z" id="Path-9-Copy" fill="#BDBFCB" fill-rule="nonzero" transform="translate(65.690388, 39.687068) rotate(27.000000) translate(-65.690388, -39.687068) "></path>
                        <path d="M80.4584768,36.3105703 C80.7162462,36.7833477 81.2397836,37.4352772 82.0830154,38.0747058 C83.9177536,39.4660006 86.4273999,40.0920246 89.6354091,39.5539875 C90.1316037,39.4707673 90.4643152,39.0130363 90.3785409,38.5316167 C90.2927667,38.050197 89.8209876,37.7273926 89.324793,37.8106128 C86.6277035,38.2629601 84.6379457,37.7666207 83.2059547,36.6807319 C82.8401637,36.40335 82.5420064,36.1079476 82.3075388,35.8159792 C82.1746267,35.6504718 82.0968839,35.5319116 82.0703719,35.4832856 C81.8349123,35.0514271 81.2831996,34.8865305 80.8380871,35.1149788 C80.3929746,35.3434272 80.2230172,35.8787117 80.4584768,36.3105703 Z" id="Path-10" fill="#BDBFCB" fill-rule="nonzero" transform="translate(85.372246, 37.378938) rotate(27.000000) translate(-85.372246, -37.378938) "></path>
                        <path d="M68.778427,27.8511983 C68.7384131,27.9769207 68.6325422,28.2332511 68.4476694,28.5760118 C68.1316918,29.1618455 67.7103923,29.7500571 67.1717407,30.2988343 C65.964135,31.5291407 64.3514344,32.3822227 62.2468969,32.6937716 C61.7491043,32.7674632 61.4071359,33.2187266 61.4830892,33.7016966 C61.5590424,34.1846666 62.0241553,34.5164523 62.5219479,34.4427607 C65.0380919,34.0702789 67.0138784,33.0251327 68.4922667,31.5189535 C69.6309585,30.3588566 70.2599765,29.1926348 70.5207774,28.3732059 C70.6693499,27.9063957 70.3997531,27.411116 69.9186164,27.2669675 C69.4374796,27.1228191 68.9269994,27.3843881 68.778427,27.8511983 Z" id="Path-11" fill="#BDBFCB" fill-rule="nonzero" transform="translate(66.017070, 30.840178) rotate(27.000000) translate(-66.017070, -30.840178) "></path>
                        <path d="M67.3471831,51.8447524 L75.6795015,50.5828365 C76.1770303,50.5074865 76.5173993,50.0550863 76.4397368,49.5723723 C76.3620744,49.0896582 75.8957897,48.7594243 75.3982609,48.8347742 L67.0659425,50.0966902 C66.5684136,50.1720401 66.2280447,50.6244403 66.3057072,51.1071544 C66.3833696,51.5898684 66.8496543,51.9201023 67.3471831,51.8447524 Z" id="Path-12" fill="#BDBFCB" fill-rule="nonzero" transform="translate(71.372722, 50.339763) rotate(27.000000) translate(-71.372722, -50.339763) "></path>
                    </g>
                </g>
            </g>
        </g>
    </g>
</svg>